<svg width="288" height="224" xmlns="http://www.w3.org/2000/svg" xmlns:xlink="http://www.w3.org/1999/xlink" overflow="hidden"><defs><clipPath id="clip0"><rect x="496" y="260" width="288" height="224"/></clipPath><clipPath id="clip1"><rect x="496" y="261" width="288" height="223"/></clipPath><clipPath id="clip2"><rect x="496" y="261" width="288" height="223"/></clipPath><linearGradient x1="102.815" y1="62.9717" x2="102.815" y2="202.016" gradientUnits="userSpaceOnUse" spreadMethod="pad" id="fill3"><stop offset="0" stop-color="#916CBF" stop-opacity="1"/><stop offset="1" stop-color="#649CD9" stop-opacity="1"/></linearGradient><linearGradient x1="117.122" y1="62.9703" x2="117.122" y2="202.019" gradientUnits="userSpaceOnUse" spreadMethod="pad" id="fill4"><stop offset="0" stop-color="#916CBF" stop-opacity="1"/><stop offset="1" stop-color="#649CD9" stop-opacity="1"/></linearGradient><linearGradient x1="162.254" y1="62.9722" x2="162.254" y2="202.018" gradientUnits="userSpaceOnUse" spreadMethod="pad" id="fill5"><stop offset="0" stop-color="#916CBF" stop-opacity="1"/><stop offset="1" stop-color="#649CD9" stop-opacity="1"/></linearGradient><linearGradient x1="169.822" y1="62.9669" x2="169.822" y2="202.019" gradientUnits="userSpaceOnUse" spreadMethod="pad" id="fill6"><stop offset="0" stop-color="#916CBF" stop-opacity="1"/><stop offset="1" stop-color="#649CD9" stop-opacity="1"/></linearGradient><linearGradient x1="214.701" y1="62.9717" x2="214.701" y2="202.017" gradientUnits="userSpaceOnUse" spreadMethod="pad" id="fill7"><stop offset="0" stop-color="#916CBF" stop-opacity="1"/><stop offset="1" stop-color="#649CD9" stop-opacity="1"/></linearGradient><linearGradient x1="131.115" y1="62.9713" x2="131.115" y2="202.019" gradientUnits="userSpaceOnUse" spreadMethod="pad" id="fill8"><stop offset="0" stop-color="#916CBF" stop-opacity="1"/><stop offset="1" stop-color="#649CD9" stop-opacity="1"/></linearGradient><linearGradient x1="223.91" y1="62.9703" x2="223.91" y2="202.018" gradientUnits="userSpaceOnUse" spreadMethod="pad" id="fill9"><stop offset="0" stop-color="#916CBF" stop-opacity="1"/><stop offset="1" stop-color="#649CD9" stop-opacity="1"/></linearGradient><linearGradient x1="135.565" y1="62.9732" x2="135.565" y2="202.015" gradientUnits="userSpaceOnUse" spreadMethod="pad" id="fill10"><stop offset="0" stop-color="#916CBF" stop-opacity="1"/><stop offset="1" stop-color="#649CD9" stop-opacity="1"/></linearGradient><linearGradient x1="166.703" y1="62.9708" x2="166.703" y2="202.015" gradientUnits="userSpaceOnUse" spreadMethod="pad" id="fill11"><stop offset="0" stop-color="#916CBF" stop-opacity="1"/><stop offset="1" stop-color="#649CD9" stop-opacity="1"/></linearGradient><linearGradient x1="205.102" y1="62.9698" x2="205.102" y2="202.018" gradientUnits="userSpaceOnUse" spreadMethod="pad" id="fill12"><stop offset="0" stop-color="#916CBF" stop-opacity="1"/><stop offset="1" stop-color="#649CD9" stop-opacity="1"/></linearGradient><linearGradient x1="90.0606" y1="62.9625" x2="90.0606" y2="202.029" gradientUnits="userSpaceOnUse" spreadMethod="pad" id="fill13"><stop offset="0" stop-color="#916CBF" stop-opacity="1"/><stop offset="1" stop-color="#649CD9" stop-opacity="1"/></linearGradient><linearGradient x1="181.841" y1="62.9698" x2="181.841" y2="202.018" gradientUnits="userSpaceOnUse" spreadMethod="pad" id="fill14"><stop offset="0" stop-color="#916CBF" stop-opacity="1"/><stop offset="1" stop-color="#649CD9" stop-opacity="1"/></linearGradient><linearGradient x1="154.138" y1="62.9703" x2="154.138" y2="202.029" gradientUnits="userSpaceOnUse" spreadMethod="pad" id="fill15"><stop offset="0" stop-color="#916CBF" stop-opacity="1"/><stop offset="1" stop-color="#649CD9" stop-opacity="1"/></linearGradient></defs><g clip-path="url(#clip0)" transform="translate(-496 -260)"><g clip-path="url(#clip1)"><g clip-path="url(#clip2)"><path d="M62.0257 243.682 62.0257 221.001 52.6606 238.178 49.9069 238.178 40.497 221.001 40.497 243.682 35.5275 243.682 35.5275 212.169 40.8517 212.169 51.2857 231.431 61.7159 212.169 67.04 212.169 67.04 243.682 62.0257 243.682Z" fill="#FFFFFF" fill-rule="nonzero" fill-opacity="1" transform="matrix(1 0 0 1.0015 464.412 225.354)"/><path d="M96.1106 243.905C93.862 243.905 91.8136 243.453 89.9655 242.549 88.1154 241.645 86.5253 240.45 85.1953 238.954 83.8633 237.459 82.8341 235.753 82.1078 233.83 81.3825 231.905 81.0199 229.939 81.0199 227.925 81.0199 225.824 81.4054 223.813 82.1736 221.889 82.9437 219.967 84.0017 218.264 85.3497 216.784 86.6947 215.307 88.2947 214.126 90.1408 213.257 91.991 212.383 94.0134 211.948 96.2022 211.948 98.4489 211.948 100.497 212.412 102.348 213.344 104.199 214.277 105.784 215.496 107.1 217.006 108.416 218.515 109.438 220.223 110.16 222.133 110.885 224.042 111.25 225.988 111.25 227.969 111.25 230.07 110.871 232.083 110.117 234.004 109.364 235.927 108.305 237.623 106.944 239.087 105.58 240.553 103.976 241.723 102.126 242.594 100.276 243.468 98.2735 243.905 96.1106 243.905ZM86.079 227.924C86.079 229.404 86.3171 230.838 86.7913 232.231 87.2646 233.622 87.9371 234.85 88.8088 235.915 89.6826 236.978 90.7406 237.831 91.985 238.465 93.2263 239.104 94.6201 239.422 96.1554 239.422 97.7525 239.422 99.1652 239.088 100.396 238.421 101.625 237.756 102.664 236.877 103.523 235.782 104.383 234.687 105.035 233.46 105.479 232.095 105.922 230.736 106.142 229.347 106.142 227.925 106.142 226.418 105.907 224.974 105.434 223.6 104.961 222.221 104.288 221.009 103.414 219.957 102.543 218.908 101.49 218.065 100.266 217.425 99.0367 216.795 97.6678 216.472 96.1564 216.472 94.5604 216.472 93.1387 216.807 91.8973 217.474 90.6549 218.138 89.6039 219.005 88.747 220.068 87.8892 221.131 87.2297 222.355 86.7704 223.73 86.3071 225.106 86.079 226.502 86.079 227.924Z" fill="#FFFFFF" fill-rule="nonzero" fill-opacity="1" transform="matrix(1 0 0 1.0015 464.412 225.354)"/><path d="M130.246 221.489 130.246 243.682 125.275 243.682 125.275 212.169 129.181 212.169 147.203 234.893 147.203 212.212 152.217 212.212 152.217 243.682 148.089 243.682 130.246 221.489Z" fill="#FFFFFF" fill-rule="nonzero" fill-opacity="1" transform="matrix(1 0 0 1.0015 464.412 225.354)"/><path d="M186.835 219.581C186.539 219.255 186.11 218.908 185.548 218.537 184.987 218.168 184.328 217.821 183.575 217.495 182.823 217.169 181.993 216.902 181.089 216.697 180.185 216.49 179.262 216.387 178.315 216.387 176.217 216.387 174.667 216.77 173.677 217.54 172.685 218.309 172.191 219.372 172.191 220.735 172.191 221.507 172.345 222.134 172.657 222.624 172.969 223.11 173.449 223.539 174.099 223.908 174.75 224.281 175.565 224.606 176.541 224.887 177.517 225.168 178.656 225.469 179.958 225.796 181.556 226.181 183.001 226.608 184.287 227.083 185.575 227.555 186.662 228.133 187.549 228.814 188.434 229.494 189.126 230.329 189.613 231.32 190.1 232.315 190.342 233.52 190.342 234.939 190.342 236.538 190.041 237.912 189.435 239.069 188.827 240.222 187.997 241.163 186.948 241.886 185.899 242.611 184.677 243.144 183.288 243.484 181.896 243.825 180.403 243.993 178.804 243.993 176.405 243.993 174.092 243.63 171.858 242.905 169.623 242.18 167.603 241.124 165.8 239.732L168.064 235.472C168.447 235.854 169 236.285 169.726 236.759 170.45 237.231 171.293 237.668 172.257 238.066 173.219 238.465 174.262 238.807 175.387 239.088 176.512 239.369 177.68 239.51 178.893 239.51 180.845 239.51 182.357 239.17 183.421 238.49 184.485 237.809 185.019 236.803 185.019 235.472 185.019 234.672 184.821 234.005 184.421 233.476 184.018 232.942 183.449 232.474 182.711 232.075 181.968 231.676 181.069 231.313 180.001 230.988 178.937 230.662 177.723 230.323 176.362 229.967 174.793 229.552 173.428 229.118 172.258 228.658 171.087 228.2 170.12 227.646 169.351 226.994 168.582 226.345 167.996 225.582 167.598 224.708 167.197 223.834 166.996 222.777 166.996 221.535 166.996 219.996 167.292 218.627 167.886 217.425 168.478 216.23 169.284 215.224 170.305 214.409 171.324 213.596 172.531 212.982 173.923 212.566 175.314 212.155 176.822 211.948 178.451 211.948 180.581 211.948 182.546 212.285 184.353 212.966 186.157 213.646 187.74 214.491 189.102 215.497L186.835 219.581Z" fill="#FFFFFF" fill-rule="nonzero" fill-opacity="1" transform="matrix(1 0 0 1.0015 464.412 225.354)"/><path d="M217.286 243.905C215.035 243.905 212.987 243.453 211.138 242.549 209.289 241.646 207.7 240.45 206.368 238.954 205.037 237.459 204.006 235.753 203.283 233.83 202.557 231.905 202.196 229.939 202.196 227.925 202.196 225.824 202.581 223.813 203.346 221.889 204.119 219.967 205.175 218.264 206.522 216.784 207.869 215.307 209.467 214.126 211.314 213.257 213.164 212.383 215.186 211.948 217.376 211.948 219.621 211.948 221.672 212.412 223.522 213.344 225.372 214.277 226.956 215.496 228.271 217.006 229.589 218.515 230.61 220.223 231.333 222.133 232.06 224.042 232.422 225.988 232.422 227.969 232.422 230.07 232.044 232.083 231.289 234.004 230.535 235.927 229.477 237.623 228.115 239.087 226.751 240.553 225.148 241.723 223.298 242.594 221.451 243.468 219.446 243.905 217.286 243.905ZM207.252 227.924C207.252 229.404 207.492 230.838 207.964 232.231 208.438 233.622 209.113 234.85 209.985 235.915 210.856 236.978 211.915 237.831 213.16 238.465 214.399 239.104 215.792 239.422 217.329 239.422 218.927 239.422 220.342 239.088 221.568 238.421 222.798 237.756 223.839 236.877 224.699 235.782 225.558 234.687 226.208 233.46 226.652 232.095 227.098 230.736 227.318 229.347 227.318 227.925 227.318 226.418 227.08 224.974 226.607 223.6 226.134 222.221 225.462 221.009 224.586 219.957 223.716 218.908 222.664 218.065 221.439 217.425 220.21 216.795 218.841 216.472 217.33 216.472 215.734 216.472 214.313 216.807 213.07 217.474 211.83 218.138 210.776 219.005 209.921 220.068 209.062 221.131 208.403 222.355 207.945 223.73 207.482 225.106 207.252 226.502 207.252 227.924Z" fill="#FFFFFF" fill-rule="nonzero" fill-opacity="1" transform="matrix(1 0 0 1.0015 464.412 225.354)"/><path d="M259.539 243.905C257.291 243.905 255.242 243.453 253.393 242.549 251.544 241.646 249.956 240.45 248.624 238.954 247.292 237.459 246.262 235.753 245.536 233.83 244.811 231.905 244.448 229.939 244.448 227.925 244.448 225.824 244.834 223.813 245.6 221.889 246.372 219.967 247.43 218.264 248.777 216.784 250.123 215.307 251.721 214.126 253.569 213.257 255.419 212.383 257.44 211.948 259.63 211.948 261.876 211.948 263.925 212.412 265.778 213.344 267.626 214.277 269.211 215.496 270.527 217.006 271.841 218.515 272.865 220.223 273.59 222.133 274.313 224.042 274.677 225.988 274.677 227.969 274.677 230.07 274.298 232.083 273.544 234.004 272.791 235.927 271.732 237.623 270.372 239.087 269.006 240.553 267.402 241.723 265.553 242.594 263.705 243.468 261.701 243.905 259.539 243.905ZM249.508 227.924C249.508 229.404 249.746 230.838 250.22 232.231 250.693 233.622 251.369 234.85 252.238 235.915 253.112 236.978 254.17 237.831 255.414 238.465 256.655 239.104 258.05 239.422 259.585 239.422 261.183 239.422 262.596 239.088 263.824 238.421 265.055 237.756 266.095 236.877 266.952 235.782 267.811 234.687 268.464 233.46 268.907 232.095 269.352 230.736 269.571 229.347 269.571 227.925 269.571 226.418 269.336 224.974 268.863 223.6 268.389 222.221 267.716 221.009 266.843 219.957 265.971 218.908 264.92 218.065 263.695 217.425 262.465 216.795 261.096 216.472 259.586 216.472 257.99 216.472 256.568 216.807 255.326 217.474 254.085 218.138 253.032 219.005 252.178 220.068 251.318 221.131 250.658 222.355 250.201 223.73 249.736 225.106 249.508 226.502 249.508 227.924Z" fill="#FFFFFF" fill-rule="nonzero" fill-opacity="1" transform="matrix(1 0 0 1.0015 464.412 225.354)"/><path d="M293.676 221.489 293.676 243.682 288.704 243.682 288.704 212.169 292.61 212.169 310.633 234.893 310.633 212.212 315.645 212.212 315.645 243.682 311.517 243.682 293.676 221.489Z" fill="#FFFFFF" fill-rule="nonzero" fill-opacity="1" transform="matrix(1 0 0 1.0015 464.412 225.354)"/><path d="M104.4 170.543C97.8481 170.543 91.2597 168.355 85.8259 163.864 79.8094 158.89 76.0892 151.873 75.347 144.103 74.6098 136.337 76.9391 128.749 81.9125 122.733 82.9676 121.454 84.8605 121.276 86.1388 122.332 87.418 123.389 87.5973 125.279 86.5393 126.558 82.591 131.337 80.7409 137.367 81.3267 143.537 81.9145 149.711 84.8685 155.285 89.6517 159.237 99.5099 167.383 114.167 165.987 122.322 156.124 123.267 154.977 124.092 153.76 124.778 152.511 125.57 151.056 127.392 150.512 128.85 151.312 130.304 152.106 130.841 153.931 130.047 155.385 129.184 156.969 128.144 158.504 126.955 159.944 121.183 166.928 112.821 170.543 104.4 170.543Z" fill="url(#fill3)" fill-rule="nonzero" transform="matrix(1 0 0 1.0015 464.412 225.354)"/><path d="M95.8944 113.521C95.0824 113.521 94.2695 113.19 93.6787 112.543 79.8432 97.4207 79.909 73.7988 93.8311 58.7629 108.706 42.7037 133.877 41.7383 149.935 56.6079 151.15 57.7337 151.224 59.6336 150.097 60.8521 148.967 62.0675 147.068 62.1393 145.854 61.0135 132.222 48.3915 110.857 49.2105 98.2367 62.8436 86.4207 75.608 86.3629 95.6583 98.1091 108.491 99.226 109.715 99.1423 111.615 97.9218 112.731 97.344 113.26 96.6187 113.521 95.8944 113.521Z" fill="url(#fill4)" fill-rule="nonzero" transform="matrix(1 0 0 1.0015 464.412 225.354)"/><path d="M180.789 148.057C180.022 148.057 179.253 147.764 178.665 147.177L141.595 110.102C140.421 108.93 140.421 107.032 141.595 105.858 142.769 104.686 144.666 104.686 145.839 105.858L182.914 142.928C184.088 144.101 184.088 146.004 182.914 147.176 182.328 147.764 181.557 148.057 180.789 148.057Z" fill="url(#fill5)" fill-rule="nonzero" transform="matrix(1 0 0 1.0015 464.412 225.354)"/><path d="M181.839 180.25C181.073 180.25 180.304 179.957 179.717 179.37L155.681 155.335C154.508 154.162 154.508 152.26 155.681 151.087 156.855 149.913 158.754 149.914 159.928 151.087L183.963 175.124C185.136 176.297 185.136 178.196 183.963 179.37 183.375 179.957 182.608 180.25 181.839 180.25Z" fill="url(#fill6)" fill-rule="nonzero" transform="matrix(1 0 0 1.0015 464.412 225.354)"/><path d="M240.457 176.586C239.691 176.586 238.921 176.294 238.335 175.707L186.818 124.197C185.646 123.024 185.646 121.124 186.818 119.951 187.992 118.777 189.891 118.777 191.064 119.951L242.583 171.464C243.756 172.636 243.756 174.534 242.583 175.707 241.997 176.294 241.226 176.586 240.457 176.586Z" fill="url(#fill7)" fill-rule="nonzero" transform="matrix(1 0 0 1.0015 464.412 225.354)"/><path d="M149.649 179.198C148.881 179.198 148.112 178.905 147.525 178.318L110.455 141.243C109.281 140.071 109.281 138.173 110.455 136.999 111.628 135.826 113.53 135.826 114.703 136.999L151.773 174.072C152.946 175.244 152.946 177.144 151.773 178.318 151.186 178.905 150.417 179.198 149.649 179.198Z" fill="url(#fill8)" fill-rule="nonzero" transform="matrix(1 0 0 1.0015 464.412 225.354)"/><path d="M272.959 177.945C272.19 177.945 271.421 177.652 270.834 177.066L172.74 78.9745C171.567 77.8009 171.567 75.9019 172.74 74.7283 173.912 73.5557 175.815 73.5557 176.989 74.7283L275.081 172.82C276.254 173.992 276.254 175.892 275.081 177.066 274.494 177.652 273.725 177.945 272.959 177.945Z" fill="url(#fill9)" fill-rule="nonzero" transform="matrix(1 0 0 1.0015 464.412 225.354)"/><path d="M142.979 141.382C142.211 141.382 141.441 141.089 140.854 140.502L126.029 125.677C124.856 124.504 124.856 122.605 126.029 121.431 127.202 120.259 129.103 120.259 130.275 121.431L145.102 136.258C146.276 137.43 146.276 139.329 145.102 140.501 144.516 141.089 143.745 141.382 142.979 141.382Z" fill="url(#fill10)" fill-rule="nonzero" transform="matrix(1 0 0 1.0015 464.412 225.354)"/><path d="M174.117 110.25C173.347 110.25 172.581 109.956 171.994 109.37L157.168 94.5394C155.994 93.3668 155.994 91.4669 157.168 90.2933 158.341 89.1207 160.24 89.1207 161.414 90.2933L176.238 105.126C177.412 106.299 177.412 108.197 176.238 109.37 175.652 109.956 174.884 110.25 174.117 110.25Z" fill="url(#fill11)" fill-rule="nonzero" transform="matrix(1 0 0 1.0015 464.412 225.354)"/><path d="M213.84 181.112C213.072 181.112 212.303 180.819 211.715 180.232L194.24 162.752C193.067 161.578 193.067 159.678 194.24 158.504 195.413 157.33 197.314 157.33 198.489 158.504L215.965 175.986C217.137 177.158 217.137 179.058 215.965 180.232 215.378 180.819 214.608 181.112 213.84 181.112Z" fill="url(#fill12)" fill-rule="nonzero" transform="matrix(1 0 0 1.0015 464.412 225.354)"/><path d="M84.2259 127.649C83.5514 127.649 82.8739 127.422 82.316 126.961 81.0368 125.903 80.8555 124.012 81.9135 122.732L93.579 108.604C94.6371 107.329 96.528 107.148 97.8053 108.201 99.0835 109.261 99.2648 111.15 98.2078 112.429L86.5403 126.557C85.9495 127.275 85.0887 127.649 84.2259 127.649Z" fill="url(#fill13)" fill-rule="nonzero" transform="matrix(1 0 0 1.0015 464.412 225.354)"/><path d="M189.691 94.6799C188.628 94.6799 187.6 94.118 187.054 93.1237 186.256 91.6701 186.785 89.841 188.242 89.0429 193.677 86.0611 197.622 81.1414 199.358 75.1886 201.092 69.2368 200.403 62.9642 197.415 57.5275 194.434 52.0937 189.513 48.1474 183.564 46.4129 177.609 44.6754 171.341 45.3658 165.907 48.3517 164.635 49.0501 163.418 49.874 162.288 50.8035 161.004 51.8586 159.115 51.6753 158.06 50.3921 157.006 49.1089 157.192 47.2169 158.471 46.1648 159.893 44.9982 161.42 43.964 163.016 43.0863 169.856 39.3303 177.752 38.4656 185.242 40.6464 192.736 42.8293 198.926 47.7988 202.681 54.6362 206.439 61.4807 207.309 69.3753 205.125 76.8693 202.943 84.3614 197.973 90.5533 191.129 94.3103 190.672 94.5594 190.177 94.6799 189.691 94.6799Z" fill="url(#fill14)" fill-rule="nonzero" transform="matrix(1 0 0 1.0015 464.412 225.354)"/><path d="M147.895 61.8115C147.032 61.8115 146.176 61.4389 145.582 60.7245 144.523 59.4453 144.702 57.5514 145.981 56.4953L158.468 46.1708C159.742 45.1158 161.637 45.2971 162.695 46.5703 163.75 47.8496 163.571 49.7435 162.293 50.8006L149.809 61.1251C149.248 61.5863 148.572 61.8115 147.895 61.8115Z" fill="url(#fill15)" fill-rule="nonzero" transform="matrix(1 0 0 1.0015 464.412 225.354)"/></g></g></g></svg>